<svg width="64" height="64" viewBox="0 0 64 64" fill="none" xmlns="http://www.w3.org/2000/svg">
<rect width="64" height="64" rx="8" fill="#1A368B"/>
<path d="M15.4245 43V25.4H17.9525V27.512H18.5285L18.0805 28.28C18.0805 27.2987 18.3365 26.52 18.8485 25.944C19.3818 25.368 20.0965 25.08 20.9925 25.08C21.9738 25.08 22.7312 25.4427 23.2645 26.168C23.7978 26.8933 24.0645 27.9173 24.0645 29.24L23.2005 27.512H24.5445L23.9365 28.28C23.9365 27.2987 24.2032 26.52 24.7365 25.944C25.2912 25.368 26.0165 25.08 26.9125 25.08C28.0218 25.08 28.8752 25.496 29.4725 26.328C30.0912 27.16 30.4005 28.2587 30.4005 29.624V43H27.7445V29.592C27.7445 28.8667 27.5845 28.3013 27.2645 27.896C26.9658 27.4907 26.5178 27.288 25.9205 27.288C25.3445 27.288 24.8858 27.4907 24.5445 27.896C24.2245 28.28 24.0645 28.8347 24.0645 29.56V43H21.7605V29.592C21.7605 28.8453 21.5898 28.28 21.2485 27.896C20.9285 27.4907 20.4698 27.288 19.8725 27.288C19.2752 27.288 18.8272 27.4907 18.5285 27.896C18.2298 28.28 18.0805 28.8347 18.0805 29.56V43H15.4245Z" fill="#B8E6FE"/>
<path d="M34.42 46.2V43.8H49.78V46.2H34.42Z" fill="#13ECF3"/>
</svg>
